<?xml version="1.0" standalone="no"?>
<!DOCTYPE svg PUBLIC "-//W3C//DTD SVG 20010904//EN"
 "http://www.w3.org/TR/2001/REC-SVG-20010904/DTD/svg10.dtd">
<svg version="1.0" xmlns="http://www.w3.org/2000/svg"
 width="500.000000pt" height="500.000000pt" viewBox="0 0 500.000000 500.000000"
 preserveAspectRatio="xMidYMid meet">

<g transform="translate(0.000000,500.000000) scale(0.100000,-0.100000)"
fill="#000000" stroke="none">
<path d="M2185 4314 c-189 -21 -305 -48 -455 -104 -332 -123 -656 -403 -839
-725 -346 -608 -249 -1413 230 -1908 l89 -92 -66 99 c-143 216 -230 441 -264
683 -18 126 -8 464 18 578 150 667 691 1174 1359 1274 105 16 411 14 513 -4
255 -44 523 -157 703 -297 74 -58 25 3 -67 83 -267 233 -588 375 -925 409 -97
9 -229 11 -296 4z"/>
<path d="M2370 4070 c-290 -24 -586 -135 -820 -310 -180 -134 -383 -384 -474
-583 -108 -238 -149 -424 -149 -677 0 -361 106 -676 323 -960 67 -87 224 -243
290 -287 103 -69 320 -146 505 -179 153 -27 436 -25 575 5 341 73 632 230 860
464 225 231 370 505 437 826 23 109 26 151 27 311 0 153 -4 205 -23 300 -39
195 -105 379 -173 478 -48 70 -203 227 -288 292 -310 237 -699 351 -1090 320z
m-518 -729 l96 -6 83 -95 c45 -52 215 -250 378 -440 341 -397 406 -468 418
-457 14 15 9 818 -5 845 -18 31 -53 52 -130 77 -51 16 -68 26 -70 42 -2 14 4
22 20 27 13 3 130 6 261 6 203 0 238 -2 243 -15 9 -23 -14 -44 -60 -55 -73
-19 -106 -39 -121 -73 -18 -44 -32 -1002 -16 -1125 13 -100 6 -140 -25 -154
-31 -14 -102 12 -152 56 -19 17 -180 193 -356 391 -478 538 -549 615 -563 615
-10 0 -13 -81 -13 -421 0 -368 2 -425 16 -455 19 -39 74 -75 146 -94 47 -12
67 -35 48 -54 -12 -12 -476 -16 -502 -3 -32 14 -19 37 35 61 92 41 111 80 126
257 32 373 41 807 17 862 -20 47 -62 82 -147 121 -88 41 -108 59 -89 81 14 16
168 19 362 6z"/>
</g>
</svg>
